#!OML:ASF X:\für Bonn\!DataBase\2005_08_10_Bjorn_Final\c3d\bjorn.ASF
:FULLY-SPECIFIED
:DEGREES
48
root -22.1193 19.4295 0.691245 2.85868 -87.7128 3.7101
lowerback -13.2352 0.865706 -2.72734
upperback 4.77853 1.93496 -2.65862
thorax 12.7465 0.804826 -0.929832
lowerneck -1.26615 -3.78406 3.80353
upperneck 5.40287 -5.03676 -3.26277
head 1.72505 -2.51887 -1.76621
rclavicle -8.74653e-015 3.97569e-015
rhumerus -36.46 -20.048 -87.4884
rradius 104.342
rwrist -11.3245
rhand -21.6252 13.1921
rfingers 7.12502
rthumb 4.77065 -16.7342
lclavicle -8.74653e-015 3.97569e-015
lhumerus -34.2445 30.3393 69.9509
lradius 15.5223
lwrist -46.1463
lhand -16.5806 -7.98934
lfingers 7.12502
lthumb 9.63997 21.7701
rfemur -12.5471 -15.0316 16.0669
rtibia 24.7069
rfoot -10.9941 19.273
rtoes 0.6892
lfemur -12.237 16.0731 -16.9182
ltibia 24.0571
lfoot -9.5424 -17.7531
ltoes -0.603299
49
root -22.1158 19.4292 0.692828 3.37791 -87.8089 3.13284
lowerback -13.2402 0.897197 -2.79967
upperback 4.76113 1.99604 -2.72103
thorax 12.73 0.830445 -0.943239
lowerneck -1.11827 -3.86453 3.7519
upperneck 5.39431 -5.13891 -3.25244
head 1.69358 -2.57005 -1.75036
rclavicle 1.55052e-014 -1.66979e-014
rhumerus -34.5018 -19.8198 -87.4127
rradius 105.639
rwrist -10.8378
rhand -22.4289 13.5605
rfingers 7.12502
rthumb 3.99459 -16.3818
lclavicle 1.55052e-014 -1.66979e-014
lhumerus -33.9708 30.0077 70.3622
lradius 15.5575
lwrist -45.7208
lhand -16.3896 -8.11865
lfingers 7.12502
lthumb 9.82429 21.6322
rfemur -12.5058 -15.01 16.0781
rtibia 24.6998
rfoot -10.9689 19.3324
rtoes 0.54125
lfemur -12.1688 16.0695 -16.8811
ltibia 24.0557
lfoot -9.56364 -17.6582
ltoes -0.604955
50
root -22.1122 19.4288 0.693527 3.55698 -87.9144 2.88826
lowerback -13.2631 0.925072 -2.89908
upperback 4.75688 2.05866 -2.78601
thorax 12.7389 0.854257 -0.943852
lowerneck -0.977437 -3.94197 3.67251
upperneck 5.3906 -5.23786 -3.21403
head 1.66646 -2.6196 -1.72089
rclavicle 1.76918e-014 4.77083e-015
rhumerus -32.3755 -19.5422 -87.2973
rradius 106.758
rwrist -10.4247
rhand -23.2562 14.2528
rfingers 7.12502
rthumb 3.1957 -15.703
lclavicle 1.76918e-014 4.77083e-015
lhumerus -33.6839 29.802 70.712
lradius 15.5491
lwrist -45.446
lhand -16.2678 -8.28698
lfingers 7.12502
lthumb 9.9418 21.4582
rfemur -12.4538 -14.9144 16.0714
rtibia 24.6928
rfoot -10.9384 19.3386
rtoes 0.62887
lfemur -12.0942 16.0876 -16.8561
ltibia 24.0535
lfoot -9.5977 -17.5753
ltoes -0.718731
51
root -22.1084 19.4284 0.694631 4.25288 -88.0326 2.12638
lowerback -13.2733 0.972921 -2.96924
upperback 4.73718 2.14305 -2.86504
thorax 12.7239 0.89169 -0.97123
lowerneck -0.793512 -4.03024 3.64392
upperneck 5.37898 -5.35121 -3.18357
head 1.62753 -2.67538 -1.70131
rclavicle 1.78906e-015 9.54166e-015
rhumerus -30.1794 -19.2549 -87.1637
rradius 107.785
rwrist -10.0961
rhand -24.1381 15.0131
rfingers 7.12502
rthumb 2.34401 -14.9537
lclavicle 1.78906e-015 9.54166e-015
lhumerus -33.4148 29.6172 70.9934
lradius 15.5253
lwrist -45.4389
lhand -16.215 -8.37161
lfingers 7.12502
lthumb 9.99273 21.3712
rfemur -12.4044 -14.8816 16.083
rtibia 24.6874
rfoot -10.8964 19.41
rtoes 0.563578
lfemur -12.0133 16.1045 -16.8132
ltibia 24.0497
lfoot -9.6117 -17.494
ltoes -0.692412
52
root -22.1039 19.4286 0.695977 4.55686 -88.1434 1.75155
lowerback -13.2886 1.02028 -3.03943
upperback 4.72698 2.22887 -2.96036
thorax 12.7238 0.930225 -1.01634
lowerneck -0.63825 -4.12994 3.59548
upperneck 5.39839 -5.48153 -3.12222
head 1.6044 -2.7395 -1.67006
rclavicle -1.13307e-014 -1.27222e-014
rhumerus -27.914 -18.9134 -87.0382
rradius 108.73
rwrist -9.88509
rhand -25.0999 15.839
rfingers 7.12502
rthumb 1.41506 -14.1361
lclavicle -1.13307e-014 -1.27222e-014
lhumerus -33.1087 29.4531 71.2607
lradius 15.4789
lwrist -45.5315
lhand -16.2933 -8.39733
lfingers 7.12502
lthumb 9.91722 21.3491
rfemur -12.3527 -14.8144 16.074
rtibia 24.6827
rfoot -10.8544 19.4459
rtoes 0.635233
lfemur -11.9295 16.118 -16.7874
ltibia 24.045
lfoot -9.66475 -17.4038
ltoes -0.795532
53
root -22.0992 19.4283 0.696962 4.92839 -88.2631 1.31546
lowerback -13.3292 1.07979 -3.12062
upperback 4.72951 2.33525 -3.05926
thorax 12.7537 0.97715 -1.05413
lowerneck -0.491705 -4.23131 3.60576
upperneck 5.38925 -5.61427 -3.09152
head 1.57154 -2.80435 -1.65821
rclavicle -4.37326e-015 -1.82882e-014
rhumerus -25.5913 -18.522 -86.8762
rradius 109.615
rwrist -9.77603
rhand -26.0975 16.5264
rfingers 7.12502
rthumb 0.451555 -13.4529
lclavicle -4.37326e-015 -1.82882e-014
lhumerus -32.7596 29.4215 71.4722
lradius 15.3614
lwrist -45.8773
lhand -16.3846 -8.38917
lfingers 7.12502
lthumb 9.82911 21.3614
rfemur -12.314 -14.7704 16.0715
rtibia 24.6813
rfoot -10.82 19.4912
rtoes 0.534465
lfemur -11.8515 16.127 -16.7626
ltibia 24.0377
lfoot -9.68307 -17.298
ltoes -0.809822
54
root -22.0938 19.4283 0.697638 5.80312 -88.3708 0.383965
lowerback -13.3637 1.13588 -3.17984
upperback 4.71306 2.43312 -3.16999
thorax 12.7596 1.0228 -1.11926
lowerneck -0.32701 -4.33658 3.60646
upperneck 5.41348 -5.75319 -3.02246
head 1.54737 -2.87171 -1.63258
rclavicle 7.15625e-015 -9.54166e-015
rhumerus -23.2515 -18.0466 -86.7343
rradius 110.43
rwrist -9.75282
rhand -27.1107 17.0488
rfingers 7.12502
rthumb -0.526995 -12.9303
lclavicle 7.15625e-015 -9.54166e-015
lhumerus -32.4187 29.2215 71.7156
lradius 15.289
lwrist -46.1482
lhand -16.4815 -8.33677
lfingers 7.12502
lthumb 9.73558 21.4182
rfemur -12.2854 -14.7301 16.0852
rtibia 24.6802
rfoot -10.7587 19.5523
rtoes 0.653286
lfemur -11.7876 16.1884 -16.7278
ltibia 24.0305
lfoot -9.71959 -17.2543
ltoes -1.00255
55
root -22.0885 19.429 0.698853 6.26602 -88.4834 -0.13066
lowerback -13.428 1.20337 -3.24562
upperback 4.71071 2.5509 -3.29164
thorax 12.8006 1.07712 -1.18775
lowerneck -0.174174 -4.45118 3.62119
upperneck 5.42825 -5.90484 -2.95729
head 1.52149 -2.9453 -1.61067
rclavicle 6.16232e-015 -2.06736e-014
rhumerus -20.8776 -17.5466 -86.5534
rradius 111.199
rwrist -9.70793
rhand -28.1037 17.4038
rfingers 7.12502
rthumb -1.48611 -12.5708
lclavicle 6.16232e-015 -2.06736e-014
lhumerus -32.0516 28.8341 72.057
lradius 15.3177
lwrist -46.2624
lhand -16.5498 -8.22819
lfingers 7.12502
lthumb 9.66971 21.5299
rfemur -12.265 -14.6919 16.0848
rtibia 24.682
rfoot -10.7214 19.6051
rtoes 0.543916
lfemur -11.7312 16.2281 -16.7111
ltibia 24.0219
lfoot -9.72368 -17.1803
ltoes -1.02308
56
root -22.0827 19.429 0.699521 7.42096 -88.5928 -1.33744
lowerback -13.4956 1.27514 -3.3007
upperback 4.7167 2.67309 -3.41246
thorax 12.8541 1.13408 -1.26028
lowerneck -0.0538839 -4.56733 3.65666
upperneck 5.4602 -6.05952 -2.89743
head 1.50612 -3.02023 -1.59535
rclavicle -3.37934e-015 4.77083e-015
rhumerus -18.4635 -16.9685 -86.3317
rradius 111.686
rwrist -9.62576
rhand -29.1837 17.8204
rfingers 7.12502
rthumb -2.52915 -12.1444
lclavicle -3.37934e-015 4.77083e-015
lhumerus -31.6578 28.3654 72.4404
lradius 15.3765
lwrist -46.2993
lhand -16.5446 -8.05565
lfingers 7.12502
lthumb 9.67479 21.7022
rfemur -12.242 -14.6023 16.1014
rtibia 24.6834
rfoot -10.6953 19.6222
rtoes 0.546563
lfemur -11.672 16.2241 -16.6747
ltibia 24.0125
lfoot -9.75372 -17.0698
ltoes -1.12437
57
root -22.0752 19.429 0.699554 8.49632 -88.7025 -2.4531
lowerback -13.5636 1.35323 -3.35616
upperback 4.71969 2.80495 -3.54529
thorax 12.9054 1.19602 -1.34347
lowerneck 0.0471396 -4.68808 3.69014
upperneck 5.51448 -6.22196 -2.81205
head 1.50187 -3.09864 -1.5727
rclavicle -1.25234e-014 -2.22639e-014
rhumerus -16.03 -16.3625 -86.0678
rradius 111.961
rwrist -9.5213
rhand -30.3506 18.2364
rfingers 7.12502
rthumb -3.65603 -11.712
lclavicle -1.25234e-014 -2.22639e-014
lhumerus -31.2468 27.914 72.7823
lradius 15.4058
lwrist -46.369
lhand -16.5666 -7.88727
lfingers 7.12502
lthumb 9.65349 21.8715
rfemur -12.2431 -14.4762 16.1249
rtibia 24.6922
rfoot -10.6774 19.5842
rtoes 0.501904
lfemur -11.6272 16.2802 -16.6457
ltibia 23.996
lfoot -9.72985 -17.031
ltoes -1.0674
58
root -22.0672 19.4294 0.699292 8.94757 -88.8001 -2.9525
lowerback -13.6325 1.42542 -3.44134
upperback 4.74144 2.93541 -3.6795
thorax 12.9783 1.25433 -1.41204
lowerneck 0.12635 -4.80403 3.75928
upperneck 5.54547 -6.37806 -2.74743
head 1.49265 -3.17365 -1.5627
rclavicle 9.93923e-016 -7.95139e-015
rhumerus -13.563 -15.7225 -85.7488
rradius 112.136
rwrist -9.40313
rhand -31.5298 18.6519
rfingers 7.12502
rthumb -4.79472 -11.2738
lclavicle 9.93923e-016 -7.95139e-015
lhumerus -30.8072 27.5026 73.1141
lradius 15.434
lwrist -46.4282
lhand -16.5361 -7.70152
lfingers 7.12502
lthumb 9.68296 22.0559
rfemur -12.2285 -14.2922 16.1282
rtibia 24.6965
rfoot -10.6975 19.4905
rtoes 0.429284
lfemur -11.5827 16.2701 -16.6326
ltibia 23.984
lfoot -9.72631 -16.9245
ltoes -1.08084
59
root -22.0601 19.4304 0.699413 9.74216 -88.9036 -3.7873
lowerback -13.7117 1.50248 -3.50698
upperback 4.75629 3.07035 -3.82375
thorax 13.0516 1.31678 -1.50136
lowerneck 0.19709 -4.92057 3.82718
upperneck 5.60387 -6.53627 -2.66104
head 1.49434 -3.24935 -1.5465
rclavicle -1.8487e-014 1.59028e-015
rhumerus -11.1208 -15.0482 -85.3773
rradius 112.157
rwrist -9.27795
rhand -32.737 19.1376
rfingers 7.12502
rthumb -5.96032 -10.7585
lclavicle -1.8487e-014 1.59028e-015
lhumerus -30.4091 27.1928 73.3521
lradius 15.4704
lwrist -46.5493
lhand -16.4492 -7.54721
lfingers 7.12502
lthumb 9.76678 22.2063
rfemur -12.2298 -14.2614 16.135
rtibia 24.7047
rfoot -10.6616 19.5375
rtoes 0.411636
lfemur -11.5402 16.3338 -16.6215
ltibia 23.9692
lfoot -9.77091 -16.8697
ltoes -1.30435
60
root -22.0524 19.4309 0.699947 11.5375 -89.0034 -5.62067
lowerback -13.8067 1.5851 -3.56041
upperback 4.79423 3.21222 -3.95936
thorax 13.1621 1.38242 -1.58619
lowerneck 0.191677 -5.03705 3.90892
upperneck 5.68232 -6.69651 -2.58864
head 1.51478 -3.32605 -1.54025
rclavicle 1.49089e-014 -1.11319e-014
rhumerus -8.67046 -14.3766 -84.9441
rradius 111.989
rwrist -9.11454
rhand -33.904 19.6739
rfingers 7.12502
rthumb -7.08692 -10.1875
lclavicle 1.49089e-014 -1.11319e-014
lhumerus -29.93 26.8565 73.6326
lradius 15.4784
lwrist -46.5539
lhand -16.3762 -7.46554
lfingers 7.12502
lthumb 9.83721 22.2847
rfemur -12.229 -14.1579 16.1565
rtibia 24.71
rfoot -10.6261 19.5292
rtoes 0.411379
lfemur -11.5027 16.3722 -16.5921
ltibia 23.9562
lfoot -9.76336 -16.803
ltoes -1.31985
